<?xml version="1.0" standalone="no"?>
<!DOCTYPE svg PUBLIC "-//W3C//DTD SVG 20010904//EN"
 "http://www.w3.org/TR/2001/REC-SVG-20010904/DTD/svg10.dtd">
<svg version="1.0" xmlns="http://www.w3.org/2000/svg"
 width="520.000000pt" height="520.000000pt" viewBox="0 0 520.000000 520.000000"
 preserveAspectRatio="xMidYMid meet">
<metadata>
Created by potrace 1.11, written by Peter Selinger 2001-2013
</metadata>
<g transform="translate(0.000000,520.000000) scale(0.100000,-0.100000)"
fill="#000000" stroke="none">
<path d="M1046 5168 c-23 -13 -48 -40 -60 -63 -21 -40 -21 -45 -21 -1078 l0
-1038 -42 -37 c-22 -20 -54 -48 -70 -61 -65 -56 -251 -218 -285 -249 l-36 -34
1 -961 2 -961 170 -54 c296 -94 358 -113 435 -137 41 -13 149 -46 240 -75 91
-29 172 -54 180 -56 13 -3 159 -49 560 -176 52 -16 122 -38 155 -48 33 -11
125 -40 205 -65 80 -25 152 -47 161 -49 8 -2 29 8 46 22 17 15 54 47 83 72 30
25 65 56 79 69 14 12 46 39 70 60 46 38 47 39 137 117 32 28 131 113 219 189
88 75 176 151 196 168 19 18 57 50 84 72 26 22 56 49 67 59 21 23 19 50 19
-306 l-1 -217 178 -57 c176 -56 348 -111 557 -179 116 -37 176 -43 222 -23 39
17 71 56 83 99 7 24 9 688 8 1890 l-3 1854 -27 57 c-30 65 -98 136 -155 163
-20 10 -200 69 -398 131 -198 62 -452 142 -565 177 -113 36 -270 86 -350 110
-80 25 -233 73 -340 107 -107 34 -267 84 -355 112 -193 60 -281 87 -535 168
-107 33 -229 72 -270 85 -268 84 -411 129 -450 142 -80 27 -149 27 -194 1z"/>
</g>
</svg>
